<svg xmlns="http://www.w3.org/2000/svg" xmlns:xlink="http://www.w3.org/1999/xlink" width="500" zoomAndPan="magnify" viewBox="0 0 375 149.999998" height="200" preserveAspectRatio="xMidYMid meet" version="1.0"><defs><g/><clipPath id="c0e23d6211"><path d="M 48 31.058594 L 75.820312 31.058594 L 75.820312 121.808594 L 48 121.808594 Z M 48 31.058594 " clip-rule="nonzero"/></clipPath><clipPath id="bc2841e8cd"><path d="M 5.320312 31.058594 L 34 31.058594 L 34 121.808594 L 5.320312 121.808594 Z M 5.320312 31.058594 " clip-rule="nonzero"/></clipPath></defs><g clip-path="url(#c0e23d6211)"><path fill="#000000" d="M 50.636719 41.144531 L 48.121094 41.144531 L 48.121094 31.058594 L 50.636719 31.058594 C 58.976562 31.058594 65.734375 37.832031 65.734375 46.183594 L 65.734375 63.832031 C 65.734375 65.417969 66.480469 66.910156 67.75 67.863281 L 73.789062 72.402344 C 74.996094 73.308594 75.734375 74.714844 75.796875 76.226562 C 75.859375 77.738281 75.242188 79.199219 74.113281 80.203125 L 67.425781 86.15625 C 66.351562 87.113281 65.734375 88.484375 65.734375 89.925781 L 65.734375 106.683594 C 65.734375 115.039062 58.976562 121.808594 50.636719 121.808594 L 48.121094 121.808594 L 48.121094 111.726562 L 50.636719 111.726562 C 53.417969 111.726562 55.667969 109.46875 55.667969 106.683594 L 55.667969 89.925781 C 55.667969 85.601562 57.515625 81.488281 60.738281 78.617188 L 62.820312 76.765625 L 61.710938 75.929688 C 57.90625 73.074219 55.667969 68.589844 55.667969 63.832031 L 55.667969 46.183594 C 55.667969 43.398438 53.417969 41.144531 50.636719 41.144531 Z M 50.636719 41.144531 " fill-opacity="1" fill-rule="evenodd"/></g><g clip-path="url(#bc2841e8cd)"><path fill="#000000" d="M 30.503906 41.144531 L 33.023438 41.144531 L 33.023438 31.058594 L 30.503906 31.058594 C 22.167969 31.058594 15.40625 37.832031 15.40625 46.183594 L 15.40625 63.832031 C 15.40625 65.417969 14.660156 66.910156 13.394531 67.863281 L 7.355469 72.402344 C 6.144531 73.308594 5.40625 74.714844 5.34375 76.226562 C 5.28125 77.738281 5.902344 79.199219 7.03125 80.203125 L 13.714844 86.15625 C 14.792969 87.113281 15.40625 88.484375 15.40625 89.925781 L 15.40625 106.683594 C 15.40625 115.039062 22.167969 121.808594 30.503906 121.808594 L 33.023438 121.808594 L 33.023438 111.726562 L 30.503906 111.726562 C 27.726562 111.726562 25.472656 109.46875 25.472656 106.683594 L 25.472656 89.925781 C 25.472656 85.601562 23.628906 81.488281 20.402344 78.617188 L 18.320312 76.765625 L 19.433594 75.929688 C 23.234375 73.074219 25.472656 68.589844 25.472656 63.832031 L 25.472656 46.183594 C 25.472656 43.398438 27.726562 41.144531 30.503906 41.144531 Z M 30.503906 41.144531 " fill-opacity="1" fill-rule="evenodd"/></g><g fill="#7cc529" fill-opacity="1"><g transform="translate(85.245271, 81.083967)"><g><path d="M 4.65625 0 L 4.65625 -38.515625 L 18.125 -38.515625 C 20.8125 -38.515625 23.023438 -38.050781 24.765625 -37.125 C 26.503906 -36.207031 27.800781 -34.972656 28.65625 -33.421875 C 29.507812 -31.878906 29.9375 -30.164062 29.9375 -28.28125 C 29.9375 -26.625 29.644531 -25.253906 29.0625 -24.171875 C 28.476562 -23.097656 27.710938 -22.25 26.765625 -21.625 C 25.816406 -21 24.789062 -20.535156 23.6875 -20.234375 L 23.6875 -19.859375 C 24.875 -19.785156 26.0625 -19.367188 27.25 -18.609375 C 28.4375 -17.859375 29.429688 -16.78125 30.234375 -15.375 C 31.035156 -13.976562 31.4375 -12.265625 31.4375 -10.234375 C 31.4375 -8.296875 31 -6.554688 30.125 -5.015625 C 29.25 -3.472656 27.863281 -2.25 25.96875 -1.34375 C 24.070312 -0.445312 21.609375 0 18.578125 0 Z M 9.328125 -4.140625 L 18.578125 -4.140625 C 21.617188 -4.140625 23.78125 -4.726562 25.0625 -5.90625 C 26.351562 -7.09375 27 -8.535156 27 -10.234375 C 27 -11.535156 26.664062 -12.738281 26 -13.84375 C 25.34375 -14.957031 24.398438 -15.847656 23.171875 -16.515625 C 21.941406 -17.191406 20.484375 -17.53125 18.796875 -17.53125 L 9.328125 -17.53125 Z M 9.328125 -21.59375 L 17.984375 -21.59375 C 20.085938 -21.59375 21.863281 -22.195312 23.3125 -23.40625 C 24.769531 -24.625 25.5 -26.25 25.5 -28.28125 C 25.5 -29.96875 24.910156 -31.40625 23.734375 -32.59375 C 22.554688 -33.78125 20.6875 -34.375 18.125 -34.375 L 9.328125 -34.375 Z M 9.328125 -21.59375 "/></g></g></g><g fill="#7cc529" fill-opacity="1"><g transform="translate(126.576261, 81.083967)"><g><path d="M 4.65625 0 L 4.65625 -38.515625 L 17.671875 -38.515625 C 20.679688 -38.515625 23.148438 -38.003906 25.078125 -36.984375 C 27.015625 -35.960938 28.445312 -34.5625 29.375 -32.78125 C 30.300781 -31 30.765625 -28.972656 30.765625 -26.703125 C 30.765625 -24.140625 30.175781 -21.910156 29 -20.015625 C 27.832031 -18.117188 26.019531 -16.75 23.5625 -15.90625 L 32.265625 0 L 26.859375 0 L 18.734375 -15.0625 C 18.421875 -15.050781 18.09375 -15.046875 17.75 -15.046875 L 9.328125 -15.046875 L 9.328125 0 Z M 9.328125 -19.25 L 17.59375 -19.25 C 20.6875 -19.25 22.890625 -19.910156 24.203125 -21.234375 C 25.515625 -22.566406 26.171875 -24.390625 26.171875 -26.703125 C 26.171875 -29.023438 25.507812 -30.882812 24.1875 -32.28125 C 22.863281 -33.675781 20.644531 -34.375 17.53125 -34.375 L 9.328125 -34.375 Z M 9.328125 -19.25 "/></g></g></g><g fill="#7cc529" fill-opacity="1"><g transform="translate(167.305572, 81.083967)"><g><path d="M 1.359375 -38.515625 L 6.6875 -38.515625 L 17.375 -20.53125 L 17.828125 -20.53125 L 28.5 -38.515625 L 33.84375 -38.515625 L 19.9375 -15.875 L 19.9375 0 L 15.265625 0 L 15.265625 -15.875 Z M 1.359375 -38.515625 "/></g></g></g><g fill="#7cc529" fill-opacity="1"><g transform="translate(209.388683, 81.083967)"><g><path d="M 6.25 0 L 1.359375 0 L 15.5 -38.515625 L 20.3125 -38.515625 L 34.453125 0 L 29.5625 0 L 25.6875 -10.90625 L 10.109375 -10.90625 Z M 11.578125 -15.046875 L 24.21875 -15.046875 L 18.046875 -32.421875 L 17.75 -32.421875 Z M 11.578125 -15.046875 "/></g></g></g><g fill="#7cc529" fill-opacity="1"><g transform="translate(252.073484, 81.083967)"><g><path d="M 35.203125 -38.515625 L 35.203125 0 L 30.6875 0 L 9.703125 -30.234375 L 9.328125 -30.234375 L 9.328125 0 L 4.65625 0 L 4.65625 -38.515625 L 9.171875 -38.515625 L 30.234375 -8.203125 L 30.609375 -8.203125 L 30.609375 -38.515625 Z M 35.203125 -38.515625 "/></g></g></g><g fill="#7cc529" fill-opacity="1"><g transform="translate(298.819703, 81.083967)"><g/></g></g><g fill="#7cc529" fill-opacity="1"><g transform="translate(320.595783, 81.083967)"><g><path d="M 4.65625 0 L 4.65625 -38.515625 L 18.125 -38.515625 C 20.8125 -38.515625 23.023438 -38.050781 24.765625 -37.125 C 26.503906 -36.207031 27.800781 -34.972656 28.65625 -33.421875 C 29.507812 -31.878906 29.9375 -30.164062 29.9375 -28.28125 C 29.9375 -26.625 29.644531 -25.253906 29.0625 -24.171875 C 28.476562 -23.097656 27.710938 -22.25 26.765625 -21.625 C 25.816406 -21 24.789062 -20.535156 23.6875 -20.234375 L 23.6875 -19.859375 C 24.875 -19.785156 26.0625 -19.367188 27.25 -18.609375 C 28.4375 -17.859375 29.429688 -16.78125 30.234375 -15.375 C 31.035156 -13.976562 31.4375 -12.265625 31.4375 -10.234375 C 31.4375 -8.296875 31 -6.554688 30.125 -5.015625 C 29.25 -3.472656 27.863281 -2.25 25.96875 -1.34375 C 24.070312 -0.445312 21.609375 0 18.578125 0 Z M 9.328125 -4.140625 L 18.578125 -4.140625 C 21.617188 -4.140625 23.78125 -4.726562 25.0625 -5.90625 C 26.351562 -7.09375 27 -8.535156 27 -10.234375 C 27 -11.535156 26.664062 -12.738281 26 -13.84375 C 25.34375 -14.957031 24.398438 -15.847656 23.171875 -16.515625 C 21.941406 -17.191406 20.484375 -17.53125 18.796875 -17.53125 L 9.328125 -17.53125 Z M 9.328125 -21.59375 L 17.984375 -21.59375 C 20.085938 -21.59375 21.863281 -22.195312 23.3125 -23.40625 C 24.769531 -24.625 25.5 -26.25 25.5 -28.28125 C 25.5 -29.96875 24.910156 -31.40625 23.734375 -32.59375 C 22.554688 -33.78125 20.6875 -34.375 18.125 -34.375 L 9.328125 -34.375 Z M 9.328125 -21.59375 "/></g></g></g><g fill="#7cc529" fill-opacity="1"><g transform="translate(361.926779, 81.083967)"><g><path d="M 7.296875 0.296875 C 6.367188 0.296875 5.570312 -0.03125 4.90625 -0.6875 C 4.238281 -1.351562 3.90625 -2.148438 3.90625 -3.078125 C 3.90625 -4.003906 4.238281 -4.800781 4.90625 -5.46875 C 5.570312 -6.132812 6.367188 -6.46875 7.296875 -6.46875 C 8.222656 -6.46875 9.019531 -6.132812 9.6875 -5.46875 C 10.351562 -4.800781 10.6875 -4.003906 10.6875 -3.078125 C 10.6875 -2.148438 10.351562 -1.351562 9.6875 -0.6875 C 9.019531 -0.03125 8.222656 0.296875 7.296875 0.296875 Z M 7.296875 0.296875 "/></g></g></g><g fill="#2f2fd9" fill-opacity="1"><g transform="translate(89.555681, 103.197734)"><g><path d="M 1.015625 0 L 1.015625 -11.703125 L 8.765625 -11.703125 L 8.765625 -9.671875 L 3.484375 -9.671875 L 3.484375 -6.875 L 8.25 -6.875 L 8.25 -4.828125 L 3.484375 -4.828125 L 3.484375 0 Z M 1.015625 0 "/></g></g></g><g fill="#2f2fd9" fill-opacity="1"><g transform="translate(105.407271, 103.197734)"><g><path d="M 0.96875 0 L 0.96875 -8.78125 L 3.328125 -8.78125 L 3.328125 -7.25 L 3.421875 -7.25 C 3.578125 -7.789062 3.84375 -8.203125 4.21875 -8.484375 C 4.601562 -8.765625 5.039062 -8.90625 5.53125 -8.90625 C 5.769531 -8.90625 5.988281 -8.875 6.1875 -8.8125 C 6.394531 -8.757812 6.578125 -8.679688 6.734375 -8.578125 L 6 -6.578125 C 5.882812 -6.628906 5.757812 -6.675781 5.625 -6.71875 C 5.488281 -6.757812 5.335938 -6.78125 5.171875 -6.78125 C 4.679688 -6.78125 4.265625 -6.609375 3.921875 -6.265625 C 3.578125 -5.929688 3.40625 -5.5 3.40625 -4.96875 L 3.40625 0 Z M 0.96875 0 "/></g></g></g><g fill="#2f2fd9" fill-opacity="1"><g transform="translate(118.744767, 103.197734)"><g><path d="M 4.9375 0.171875 C 4.050781 0.171875 3.285156 -0.015625 2.640625 -0.390625 C 1.992188 -0.773438 1.492188 -1.304688 1.140625 -1.984375 C 0.796875 -2.660156 0.625 -3.453125 0.625 -4.359375 C 0.625 -5.265625 0.796875 -6.054688 1.140625 -6.734375 C 1.492188 -7.410156 1.992188 -7.9375 2.640625 -8.3125 C 3.285156 -8.695312 4.050781 -8.890625 4.9375 -8.890625 C 5.820312 -8.890625 6.585938 -8.695312 7.234375 -8.3125 C 7.878906 -7.9375 8.378906 -7.410156 8.734375 -6.734375 C 9.085938 -6.054688 9.265625 -5.265625 9.265625 -4.359375 C 9.265625 -3.453125 9.085938 -2.660156 8.734375 -1.984375 C 8.378906 -1.304688 7.878906 -0.773438 7.234375 -0.390625 C 6.585938 -0.015625 5.820312 0.171875 4.9375 0.171875 Z M 4.953125 -1.71875 C 5.554688 -1.71875 6.007812 -1.96875 6.3125 -2.46875 C 6.625 -2.96875 6.78125 -3.601562 6.78125 -4.375 C 6.78125 -5.132812 6.625 -5.765625 6.3125 -6.265625 C 6.007812 -6.773438 5.554688 -7.03125 4.953125 -7.03125 C 4.335938 -7.03125 3.875 -6.773438 3.5625 -6.265625 C 3.25 -5.765625 3.09375 -5.132812 3.09375 -4.375 C 3.09375 -3.601562 3.25 -2.96875 3.5625 -2.46875 C 3.875 -1.96875 4.335938 -1.71875 4.953125 -1.71875 Z M 4.953125 -1.71875 "/></g></g></g><g fill="#2f2fd9" fill-opacity="1"><g transform="translate(135.059168, 103.197734)"><g><path d="M 3.40625 -5.078125 L 3.40625 0 L 0.96875 0 L 0.96875 -8.78125 L 3.296875 -8.78125 L 3.296875 -7.234375 L 3.390625 -7.234375 C 3.585938 -7.742188 3.914062 -8.144531 4.375 -8.4375 C 4.832031 -8.738281 5.382812 -8.890625 6.03125 -8.890625 C 6.945312 -8.890625 7.679688 -8.59375 8.234375 -8 C 8.785156 -7.414062 9.0625 -6.613281 9.0625 -5.59375 L 9.0625 0 L 6.625 0 L 6.625 -5.15625 C 6.632812 -5.6875 6.5 -6.101562 6.21875 -6.40625 C 5.9375 -6.71875 5.550781 -6.875 5.0625 -6.875 C 4.570312 -6.875 4.171875 -6.710938 3.859375 -6.390625 C 3.554688 -6.078125 3.40625 -5.640625 3.40625 -5.078125 Z M 3.40625 -5.078125 "/></g></g></g><g fill="#2f2fd9" fill-opacity="1"><g transform="translate(151.504993, 103.197734)"><g><path d="M 5.640625 -8.78125 L 5.640625 -6.953125 L 3.984375 -6.953125 L 3.984375 -2.703125 C 3.984375 -2.359375 4.0625 -2.128906 4.21875 -2.015625 C 4.375 -1.898438 4.570312 -1.84375 4.8125 -1.84375 C 4.925781 -1.84375 5.039062 -1.851562 5.15625 -1.875 C 5.269531 -1.894531 5.359375 -1.910156 5.421875 -1.921875 L 5.796875 -0.109375 C 5.679688 -0.0664062 5.507812 -0.0195312 5.28125 0.03125 C 5.0625 0.0820312 4.796875 0.113281 4.484375 0.125 C 3.597656 0.15625 2.882812 -0.0351562 2.34375 -0.453125 C 1.8125 -0.867188 1.546875 -1.507812 1.546875 -2.375 L 1.546875 -6.953125 L 0.359375 -6.953125 L 0.359375 -8.78125 L 1.546875 -8.78125 L 1.546875 -10.875 L 3.984375 -10.875 L 3.984375 -8.78125 Z M 5.640625 -8.78125 "/></g></g></g><g fill="#2f2fd9" fill-opacity="1"><g transform="translate(164.196828, 103.197734)"><g><path d="M 4.96875 0.171875 C 4.070312 0.171875 3.296875 -0.0078125 2.640625 -0.375 C 1.992188 -0.75 1.492188 -1.269531 1.140625 -1.9375 C 0.796875 -2.613281 0.625 -3.414062 0.625 -4.34375 C 0.625 -5.25 0.796875 -6.039062 1.140625 -6.71875 C 1.492188 -7.40625 1.988281 -7.9375 2.625 -8.3125 C 3.257812 -8.695312 4.007812 -8.890625 4.875 -8.890625 C 5.644531 -8.890625 6.34375 -8.722656 6.96875 -8.390625 C 7.59375 -8.066406 8.085938 -7.570312 8.453125 -6.90625 C 8.816406 -6.25 9 -5.425781 9 -4.4375 L 9 -3.765625 L 3.015625 -3.765625 C 3.015625 -3.109375 3.191406 -2.585938 3.546875 -2.203125 C 3.910156 -1.828125 4.398438 -1.640625 5.015625 -1.640625 C 5.421875 -1.640625 5.769531 -1.722656 6.0625 -1.890625 C 6.363281 -2.066406 6.578125 -2.320312 6.703125 -2.65625 L 8.953125 -2.515625 C 8.773438 -1.703125 8.335938 -1.050781 7.640625 -0.5625 C 6.941406 -0.0703125 6.050781 0.171875 4.96875 0.171875 Z M 3.015625 -5.28125 L 6.703125 -5.28125 C 6.703125 -5.800781 6.535156 -6.226562 6.203125 -6.5625 C 5.867188 -6.90625 5.441406 -7.078125 4.921875 -7.078125 C 4.378906 -7.078125 3.929688 -6.898438 3.578125 -6.546875 C 3.234375 -6.203125 3.046875 -5.78125 3.015625 -5.28125 Z M 3.015625 -5.28125 "/></g></g></g><g fill="#2f2fd9" fill-opacity="1"><g transform="translate(180.254112, 103.197734)"><g><path d="M 3.40625 -5.078125 L 3.40625 0 L 0.96875 0 L 0.96875 -8.78125 L 3.296875 -8.78125 L 3.296875 -7.234375 L 3.390625 -7.234375 C 3.585938 -7.742188 3.914062 -8.144531 4.375 -8.4375 C 4.832031 -8.738281 5.382812 -8.890625 6.03125 -8.890625 C 6.945312 -8.890625 7.679688 -8.59375 8.234375 -8 C 8.785156 -7.414062 9.0625 -6.613281 9.0625 -5.59375 L 9.0625 0 L 6.625 0 L 6.625 -5.15625 C 6.632812 -5.6875 6.5 -6.101562 6.21875 -6.40625 C 5.9375 -6.71875 5.550781 -6.875 5.0625 -6.875 C 4.570312 -6.875 4.171875 -6.710938 3.859375 -6.390625 C 3.554688 -6.078125 3.40625 -5.640625 3.40625 -5.078125 Z M 3.40625 -5.078125 "/></g></g></g><g fill="#2f2fd9" fill-opacity="1"><g transform="translate(196.699936, 103.197734)"><g><path d="M 4.203125 0.140625 C 3.535156 0.140625 2.929688 -0.03125 2.390625 -0.375 C 1.859375 -0.71875 1.429688 -1.222656 1.109375 -1.890625 C 0.796875 -2.566406 0.640625 -3.394531 0.640625 -4.375 C 0.640625 -5.382812 0.800781 -6.222656 1.125 -6.890625 C 1.457031 -7.554688 1.890625 -8.054688 2.421875 -8.390625 C 2.960938 -8.722656 3.554688 -8.890625 4.203125 -8.890625 C 4.691406 -8.890625 5.097656 -8.804688 5.421875 -8.640625 C 5.753906 -8.472656 6.019531 -8.265625 6.21875 -8.015625 C 6.425781 -7.773438 6.585938 -7.535156 6.703125 -7.296875 L 6.765625 -7.296875 L 6.765625 -11.703125 L 9.203125 -11.703125 L 9.203125 0 L 6.796875 0 L 6.796875 -1.40625 L 6.703125 -1.40625 C 6.585938 -1.164062 6.425781 -0.925781 6.21875 -0.6875 C 6.007812 -0.445312 5.738281 -0.25 5.40625 -0.09375 C 5.082031 0.0625 4.679688 0.140625 4.203125 0.140625 Z M 4.984375 -1.796875 C 5.566406 -1.796875 6.019531 -2.03125 6.34375 -2.5 C 6.664062 -2.976562 6.828125 -3.609375 6.828125 -4.390625 C 6.828125 -5.171875 6.664062 -5.789062 6.34375 -6.25 C 6.019531 -6.71875 5.566406 -6.953125 4.984375 -6.953125 C 4.378906 -6.953125 3.914062 -6.710938 3.59375 -6.234375 C 3.28125 -5.765625 3.125 -5.148438 3.125 -4.390625 C 3.125 -3.617188 3.28125 -2.992188 3.59375 -2.515625 C 3.914062 -2.035156 4.378906 -1.796875 4.984375 -1.796875 Z M 4.984375 -1.796875 "/></g></g></g><g fill="#2f2fd9" fill-opacity="1"><g transform="translate(213.36288, 103.197734)"><g/></g></g><g fill="#2f2fd9" fill-opacity="1"><g transform="translate(223.534924, 103.197734)"><g><path d="M 5.171875 0 L 1.015625 0 L 1.015625 -11.703125 L 5.203125 -11.703125 C 6.378906 -11.703125 7.390625 -11.46875 8.234375 -11 C 9.085938 -10.53125 9.742188 -9.859375 10.203125 -8.984375 C 10.660156 -8.117188 10.890625 -7.078125 10.890625 -5.859375 C 10.890625 -4.640625 10.660156 -3.59375 10.203125 -2.71875 C 9.742188 -1.84375 9.085938 -1.171875 8.234375 -0.703125 C 7.378906 -0.234375 6.359375 0 5.171875 0 Z M 3.484375 -2.125 L 5.0625 -2.125 C 6.164062 -2.125 7 -2.421875 7.5625 -3.015625 C 8.132812 -3.609375 8.421875 -4.554688 8.421875 -5.859375 C 8.421875 -7.160156 8.132812 -8.101562 7.5625 -8.6875 C 7 -9.28125 6.164062 -9.578125 5.0625 -9.578125 L 3.484375 -9.578125 Z M 3.484375 -2.125 "/></g></g></g><g fill="#2f2fd9" fill-opacity="1"><g transform="translate(241.677746, 103.197734)"><g><path d="M 4.96875 0.171875 C 4.070312 0.171875 3.296875 -0.0078125 2.640625 -0.375 C 1.992188 -0.75 1.492188 -1.269531 1.140625 -1.9375 C 0.796875 -2.613281 0.625 -3.414062 0.625 -4.34375 C 0.625 -5.25 0.796875 -6.039062 1.140625 -6.71875 C 1.492188 -7.40625 1.988281 -7.9375 2.625 -8.3125 C 3.257812 -8.695312 4.007812 -8.890625 4.875 -8.890625 C 5.644531 -8.890625 6.34375 -8.722656 6.96875 -8.390625 C 7.59375 -8.066406 8.085938 -7.570312 8.453125 -6.90625 C 8.816406 -6.25 9 -5.425781 9 -4.4375 L 9 -3.765625 L 3.015625 -3.765625 C 3.015625 -3.109375 3.191406 -2.585938 3.546875 -2.203125 C 3.910156 -1.828125 4.398438 -1.640625 5.015625 -1.640625 C 5.421875 -1.640625 5.769531 -1.722656 6.0625 -1.890625 C 6.363281 -2.066406 6.578125 -2.320312 6.703125 -2.65625 L 8.953125 -2.515625 C 8.773438 -1.703125 8.335938 -1.050781 7.640625 -0.5625 C 6.941406 -0.0703125 6.050781 0.171875 4.96875 0.171875 Z M 3.015625 -5.28125 L 6.703125 -5.28125 C 6.703125 -5.800781 6.535156 -6.226562 6.203125 -6.5625 C 5.867188 -6.90625 5.441406 -7.078125 4.921875 -7.078125 C 4.378906 -7.078125 3.929688 -6.898438 3.578125 -6.546875 C 3.234375 -6.203125 3.046875 -5.78125 3.015625 -5.28125 Z M 3.015625 -5.28125 "/></g></g></g><g fill="#2f2fd9" fill-opacity="1"><g transform="translate(257.735023, 103.197734)"><g><path d="M 9.15625 -8.78125 L 6.09375 0 L 3.34375 0 L 0.28125 -8.78125 L 2.84375 -8.78125 L 4.671875 -2.5 L 4.765625 -2.5 L 6.578125 -8.78125 Z M 9.15625 -8.78125 "/></g></g></g><g fill="#2f2fd9" fill-opacity="1"><g transform="translate(273.603747, 103.197734)"><g><path d="M 4.96875 0.171875 C 4.070312 0.171875 3.296875 -0.0078125 2.640625 -0.375 C 1.992188 -0.75 1.492188 -1.269531 1.140625 -1.9375 C 0.796875 -2.613281 0.625 -3.414062 0.625 -4.34375 C 0.625 -5.25 0.796875 -6.039062 1.140625 -6.71875 C 1.492188 -7.40625 1.988281 -7.9375 2.625 -8.3125 C 3.257812 -8.695312 4.007812 -8.890625 4.875 -8.890625 C 5.644531 -8.890625 6.34375 -8.722656 6.96875 -8.390625 C 7.59375 -8.066406 8.085938 -7.570312 8.453125 -6.90625 C 8.816406 -6.25 9 -5.425781 9 -4.4375 L 9 -3.765625 L 3.015625 -3.765625 C 3.015625 -3.109375 3.191406 -2.585938 3.546875 -2.203125 C 3.910156 -1.828125 4.398438 -1.640625 5.015625 -1.640625 C 5.421875 -1.640625 5.769531 -1.722656 6.0625 -1.890625 C 6.363281 -2.066406 6.578125 -2.320312 6.703125 -2.65625 L 8.953125 -2.515625 C 8.773438 -1.703125 8.335938 -1.050781 7.640625 -0.5625 C 6.941406 -0.0703125 6.050781 0.171875 4.96875 0.171875 Z M 3.015625 -5.28125 L 6.703125 -5.28125 C 6.703125 -5.800781 6.535156 -6.226562 6.203125 -6.5625 C 5.867188 -6.90625 5.441406 -7.078125 4.921875 -7.078125 C 4.378906 -7.078125 3.929688 -6.898438 3.578125 -6.546875 C 3.234375 -6.203125 3.046875 -5.78125 3.015625 -5.28125 Z M 3.015625 -5.28125 "/></g></g></g><g fill="#2f2fd9" fill-opacity="1"><g transform="translate(289.661024, 103.197734)"><g><path d="M 3.40625 -11.703125 L 3.40625 0 L 0.96875 0 L 0.96875 -11.703125 Z M 3.40625 -11.703125 "/></g></g></g><g fill="#2f2fd9" fill-opacity="1"><g transform="translate(300.47873, 103.197734)"><g><path d="M 4.9375 0.171875 C 4.050781 0.171875 3.285156 -0.015625 2.640625 -0.390625 C 1.992188 -0.773438 1.492188 -1.304688 1.140625 -1.984375 C 0.796875 -2.660156 0.625 -3.453125 0.625 -4.359375 C 0.625 -5.265625 0.796875 -6.054688 1.140625 -6.734375 C 1.492188 -7.410156 1.992188 -7.9375 2.640625 -8.3125 C 3.285156 -8.695312 4.050781 -8.890625 4.9375 -8.890625 C 5.820312 -8.890625 6.585938 -8.695312 7.234375 -8.3125 C 7.878906 -7.9375 8.378906 -7.410156 8.734375 -6.734375 C 9.085938 -6.054688 9.265625 -5.265625 9.265625 -4.359375 C 9.265625 -3.453125 9.085938 -2.660156 8.734375 -1.984375 C 8.378906 -1.304688 7.878906 -0.773438 7.234375 -0.390625 C 6.585938 -0.015625 5.820312 0.171875 4.9375 0.171875 Z M 4.953125 -1.71875 C 5.554688 -1.71875 6.007812 -1.96875 6.3125 -2.46875 C 6.625 -2.96875 6.78125 -3.601562 6.78125 -4.375 C 6.78125 -5.132812 6.625 -5.765625 6.3125 -6.265625 C 6.007812 -6.773438 5.554688 -7.03125 4.953125 -7.03125 C 4.335938 -7.03125 3.875 -6.773438 3.5625 -6.265625 C 3.25 -5.765625 3.09375 -5.132812 3.09375 -4.375 C 3.09375 -3.601562 3.25 -2.96875 3.5625 -2.46875 C 3.875 -1.96875 4.335938 -1.71875 4.953125 -1.71875 Z M 4.953125 -1.71875 "/></g></g></g><g fill="#2f2fd9" fill-opacity="1"><g transform="translate(316.793142, 103.197734)"><g><path d="M 0.96875 3.296875 L 0.96875 -8.78125 L 3.375 -8.78125 L 3.375 -7.296875 L 3.484375 -7.296875 C 3.585938 -7.535156 3.738281 -7.773438 3.9375 -8.015625 C 4.144531 -8.265625 4.414062 -8.472656 4.75 -8.640625 C 5.082031 -8.804688 5.492188 -8.890625 5.984375 -8.890625 C 6.617188 -8.890625 7.207031 -8.722656 7.75 -8.390625 C 8.289062 -8.054688 8.722656 -7.554688 9.046875 -6.890625 C 9.367188 -6.222656 9.53125 -5.382812 9.53125 -4.375 C 9.53125 -3.394531 9.367188 -2.566406 9.046875 -1.890625 C 8.734375 -1.222656 8.304688 -0.71875 7.765625 -0.375 C 7.234375 -0.03125 6.632812 0.140625 5.96875 0.140625 C 5.5 0.140625 5.097656 0.0625 4.765625 -0.09375 C 4.441406 -0.25 4.175781 -0.445312 3.96875 -0.6875 C 3.757812 -0.925781 3.597656 -1.164062 3.484375 -1.40625 L 3.40625 -1.40625 L 3.40625 3.296875 Z M 3.359375 -4.390625 C 3.359375 -3.609375 3.519531 -2.976562 3.84375 -2.5 C 4.164062 -2.03125 4.617188 -1.796875 5.203125 -1.796875 C 5.796875 -1.796875 6.25 -2.035156 6.5625 -2.515625 C 6.882812 -2.992188 7.046875 -3.617188 7.046875 -4.390625 C 7.046875 -5.148438 6.890625 -5.765625 6.578125 -6.234375 C 6.265625 -6.710938 5.804688 -6.953125 5.203125 -6.953125 C 4.609375 -6.953125 4.148438 -6.71875 3.828125 -6.25 C 3.515625 -5.789062 3.359375 -5.171875 3.359375 -4.390625 Z M 3.359375 -4.390625 "/></g></g></g><g fill="#2f2fd9" fill-opacity="1"><g transform="translate(333.410374, 103.197734)"><g><path d="M 4.96875 0.171875 C 4.070312 0.171875 3.296875 -0.0078125 2.640625 -0.375 C 1.992188 -0.75 1.492188 -1.269531 1.140625 -1.9375 C 0.796875 -2.613281 0.625 -3.414062 0.625 -4.34375 C 0.625 -5.25 0.796875 -6.039062 1.140625 -6.71875 C 1.492188 -7.40625 1.988281 -7.9375 2.625 -8.3125 C 3.257812 -8.695312 4.007812 -8.890625 4.875 -8.890625 C 5.644531 -8.890625 6.34375 -8.722656 6.96875 -8.390625 C 7.59375 -8.066406 8.085938 -7.570312 8.453125 -6.90625 C 8.816406 -6.25 9 -5.425781 9 -4.4375 L 9 -3.765625 L 3.015625 -3.765625 C 3.015625 -3.109375 3.191406 -2.585938 3.546875 -2.203125 C 3.910156 -1.828125 4.398438 -1.640625 5.015625 -1.640625 C 5.421875 -1.640625 5.769531 -1.722656 6.0625 -1.890625 C 6.363281 -2.066406 6.578125 -2.320312 6.703125 -2.65625 L 8.953125 -2.515625 C 8.773438 -1.703125 8.335938 -1.050781 7.640625 -0.5625 C 6.941406 -0.0703125 6.050781 0.171875 4.96875 0.171875 Z M 3.015625 -5.28125 L 6.703125 -5.28125 C 6.703125 -5.800781 6.535156 -6.226562 6.203125 -6.5625 C 5.867188 -6.90625 5.441406 -7.078125 4.921875 -7.078125 C 4.378906 -7.078125 3.929688 -6.898438 3.578125 -6.546875 C 3.234375 -6.203125 3.046875 -5.78125 3.015625 -5.28125 Z M 3.015625 -5.28125 "/></g></g></g><g fill="#2f2fd9" fill-opacity="1"><g transform="translate(349.467651, 103.197734)"><g><path d="M 0.96875 0 L 0.96875 -8.78125 L 3.328125 -8.78125 L 3.328125 -7.25 L 3.421875 -7.25 C 3.578125 -7.789062 3.84375 -8.203125 4.21875 -8.484375 C 4.601562 -8.765625 5.039062 -8.90625 5.53125 -8.90625 C 5.769531 -8.90625 5.988281 -8.875 6.1875 -8.8125 C 6.394531 -8.757812 6.578125 -8.679688 6.734375 -8.578125 L 6 -6.578125 C 5.882812 -6.628906 5.757812 -6.675781 5.625 -6.71875 C 5.488281 -6.757812 5.335938 -6.78125 5.171875 -6.78125 C 4.679688 -6.78125 4.265625 -6.609375 3.921875 -6.265625 C 3.578125 -5.929688 3.40625 -5.5 3.40625 -4.96875 L 3.40625 0 Z M 0.96875 0 "/></g></g></g></svg>